<svg width="40" height="39" viewBox="0 0 40 39" fill="none" xmlns="http://www.w3.org/2000/svg">
<g clip-path="url(#clip0_197_1864)">
<path d="M39.01 19.5C39.01 29.24 31.88 37.31 22.56 38.77V25.14H27.1L27.97 19.5H22.56V15.85C22.56 14.3 23.31 12.8 25.73 12.8H28.19V8C28.19 8 25.96 7.62 23.82 7.62C19.37 7.62 16.45 10.32 16.45 15.21V19.5H11.5V25.14H16.45V38.77C7.13 37.31 0 29.24 0 19.5C0 8.73 8.73 0 19.51 0C30.29 0 39.01 8.73 39.01 19.5Z" fill="#18BE72"/>
</g>
<defs>
<clipPath id="clip0_197_1864">
<rect width="39.01" height="38.77" fill="white"/>
</clipPath>
</defs>
</svg>
